<?xml version="1.0" encoding="UTF-8" standalone="no"?><!DOCTYPE svg PUBLIC "-//W3C//DTD SVG 1.1//EN" "http://www.w3.org/Graphics/SVG/1.1/DTD/svg11.dtd"><svg width="100%" height="100%" viewBox="0 0 253 59" version="1.1" xmlns="http://www.w3.org/2000/svg" xmlns:xlink="http://www.w3.org/1999/xlink" xml:space="preserve" xmlns:serif="http://www.serif.com/" style="fill-rule:evenodd;clip-rule:evenodd;stroke-linejoin:round;stroke-miterlimit:2;"><g id="Semeando-Devs" serif:id="Semeando Devs"><g id="Linhas"><path d="M251.899,37.832c-0.887,-0.886 -2.326,-0.886 -3.213,0l-17.29,17.291c-0.887,0.886 -0.887,2.326 -0,3.212c0.886,0.887 2.326,0.887 3.212,0l17.291,-17.29c0.886,-0.887 0.886,-2.326 -0,-3.213Z" style="fill:#bbe85d;"/><path d="M4.537,40.952c0,-1.252 -1.016,-2.269 -2.268,-2.269c-1.252,-0 -2.269,1.017 -2.269,2.269l-0,0.005c-0,1.253 1.017,2.269 2.269,2.269c1.252,0 2.268,-1.016 2.268,-2.269l0,-0.005Z" style="fill:#985de8;"/><path d="M33.554,21.482c-0.887,0.886 -0.887,2.326 -0,3.212c0.886,0.887 2.326,0.887 3.212,0l-25.403,25.403c-0.886,0.887 -2.326,0.887 -3.212,0c-0.887,-0.886 -0.887,-2.326 -0,-3.212l25.403,-25.403Z" style="fill:#42bdff;"/><path d="M45.111,13.137c0.886,0.887 0.886,2.326 -0,3.213l-8.345,8.344c-0.886,0.887 -2.326,0.887 -3.212,0c-0.887,-0.886 -0.887,-2.326 -0,-3.212l8.344,-8.345c0.887,-0.886 2.326,-0.886 3.213,0Z" style="fill:#4551be;"/><path d="M29.848,13.405c-0.886,-0.886 -2.326,-0.886 -3.212,0l-15.322,15.322c-0.887,0.887 -0.887,2.326 -0,3.213c0.886,0.886 2.326,0.886 3.212,-0l15.322,-15.322c0.887,-0.887 0.887,-2.326 0,-3.213Z" style="fill:#e85d96;"/><path d="M24.131,3.836c0.886,0.887 0.886,2.326 -0,3.213l-6.906,6.906c-0.887,0.886 -2.326,0.886 -3.213,-0c-0.886,-0.887 -0.886,-2.326 0,-3.213l6.906,-6.906c0.887,-0.886 2.326,-0.886 3.213,0Z" style="fill:#3cb68c;"/><path d="M42.398,0.665c-0.887,-0.887 -2.326,-0.887 -3.213,-0l-5.487,5.487c-0.887,0.887 -0.887,2.326 -0,3.213c0.886,0.886 2.326,0.886 3.212,-0l5.488,-5.488c0.886,-0.886 0.886,-2.326 -0,-3.212Z" style="fill:#ffcf00;"/></g><g id="Tipografia"><path d="M227.708,42.042c-0.851,-0.129 -1.504,-0.865 -1.504,-1.751c0,-0.978 0.794,-1.772 1.772,-1.772c0.978,0 1.772,0.794 1.772,1.772c-0,0.183 -0.028,0.36 -0.08,0.526c-0.086,0.391 -0.257,0.776 -0.513,1.154c-0.385,0.568 -0.917,1.156 -1.597,1.764l-0.743,-0.681c0.352,-0.36 0.65,-0.698 0.893,-1.012Z" style="fill:#a6acb9;fill-rule:nonzero;"/><circle cx="227.976" cy="33.214" r="1.772" style="fill:#a6acb9;"/><path d="M219.704,42.48c-0.532,0 -1.037,-0.05 -1.515,-0.152c-0.478,-0.102 -0.924,-0.263 -1.339,-0.482c-0.415,-0.219 -0.803,-0.509 -1.163,-0.869c-0.36,-0.36 -0.682,-0.791 -0.963,-1.292l1.104,-0.071l-0,2.561l-2.491,-0l0,-3.689l1.574,-0.117c0.267,0.376 0.635,0.705 1.105,0.987c0.47,0.282 0.959,0.497 1.468,0.646c0.509,0.149 0.959,0.223 1.351,0.223c0.298,0 0.548,-0.031 0.752,-0.094c0.203,-0.063 0.36,-0.149 0.47,-0.258c0.109,-0.11 0.164,-0.235 0.164,-0.376c0,-0.094 -0.035,-0.196 -0.106,-0.306c-0.07,-0.109 -0.199,-0.219 -0.387,-0.329c-0.188,-0.109 -0.466,-0.235 -0.834,-0.376c-0.368,-0.14 -0.858,-0.297 -1.469,-0.469c-0.924,-0.267 -1.695,-0.572 -2.314,-0.917c-0.618,-0.344 -1.081,-0.759 -1.386,-1.245c-0.305,-0.485 -0.458,-1.057 -0.458,-1.715c-0,-0.611 0.164,-1.171 0.493,-1.68c0.329,-0.509 0.791,-0.916 1.386,-1.221c0.596,-0.306 1.3,-0.458 2.115,-0.458c0.658,-0 1.261,0.094 1.809,0.282c0.548,0.187 1.053,0.485 1.515,0.892c0.462,0.408 0.881,0.948 1.257,1.621l-1.104,0.094l-0,-2.584l2.49,0l0,3.665l-1.55,0.141c-0.282,-0.423 -0.596,-0.771 -0.94,-1.045c-0.345,-0.275 -0.717,-0.478 -1.116,-0.611c-0.399,-0.133 -0.826,-0.2 -1.28,-0.2c-0.282,-0 -0.525,0.027 -0.729,0.082c-0.203,0.055 -0.36,0.137 -0.47,0.247c-0.109,0.11 -0.164,0.235 -0.164,0.376c-0,0.109 0.039,0.215 0.117,0.317c0.079,0.102 0.216,0.207 0.412,0.317c0.195,0.11 0.465,0.227 0.81,0.353c0.345,0.125 0.775,0.266 1.292,0.422c0.909,0.267 1.684,0.584 2.326,0.952c0.642,0.368 1.136,0.803 1.48,1.304c0.345,0.501 0.517,1.088 0.517,1.762c0,0.626 -0.18,1.19 -0.54,1.691c-0.361,0.502 -0.858,0.897 -1.492,1.187c-0.634,0.29 -1.367,0.434 -2.197,0.434Z" style="fill:#a6acb9;fill-rule:nonzero;"/><path d="M204.28,42.48l-5.592,-9.796l3.947,-0l3.007,5.709l2.867,-5.686l3.171,0l-5.403,9.773l-1.997,0Zm-6.25,-8.598l0,-2.796l6.485,0l-0,2.49l-4.112,0l0,0.306l-2.373,-0Zm8.482,-0.306l-0,-2.49l5.92,0l0,2.796l-2.326,-0l0,-0.306l-3.594,0Z" style="fill:#a6acb9;fill-rule:nonzero;"/><path d="M191.676,42.48c-0.815,0 -1.61,-0.121 -2.385,-0.364c-0.775,-0.243 -1.476,-0.603 -2.103,-1.08c-0.626,-0.478 -1.12,-1.069 -1.48,-1.774c-0.36,-0.705 -0.54,-1.519 -0.54,-2.444c-0,-0.924 0.18,-1.754 0.54,-2.49c0.36,-0.736 0.85,-1.366 1.469,-1.891c0.618,-0.525 1.319,-0.928 2.102,-1.21c0.783,-0.282 1.606,-0.423 2.467,-0.423c1.034,0 1.942,0.145 2.725,0.435c0.783,0.289 1.398,0.705 1.845,1.245c0.446,0.54 0.669,1.178 0.669,1.915c0,0.767 -0.219,1.401 -0.658,1.903c-0.438,0.501 -1.01,0.877 -1.715,1.127c-0.705,0.251 -1.456,0.376 -2.255,0.376c-0.956,0 -1.782,-0.117 -2.479,-0.352c-0.697,-0.235 -1.39,-0.533 -2.079,-0.893l0,-1.997c0.862,0.407 1.578,0.658 2.15,0.752c0.571,0.094 1.069,0.141 1.492,0.141c0.438,-0.016 0.802,-0.067 1.092,-0.153c0.29,-0.086 0.509,-0.207 0.658,-0.364c0.149,-0.157 0.223,-0.337 0.223,-0.54c0,-0.251 -0.125,-0.455 -0.376,-0.611c-0.25,-0.157 -0.587,-0.235 -1.01,-0.235c-0.439,-0 -0.861,0.078 -1.269,0.235c-0.407,0.156 -0.775,0.376 -1.104,0.658c-0.329,0.282 -0.591,0.61 -0.787,0.986c-0.196,0.376 -0.294,0.791 -0.294,1.245c0,0.611 0.145,1.128 0.435,1.551c0.29,0.423 0.681,0.74 1.175,0.952c0.493,0.211 1.037,0.317 1.633,0.317c0.845,-0 1.613,-0.137 2.302,-0.411c0.689,-0.275 1.292,-0.607 1.809,-0.999l1.457,2.326c-0.47,0.407 -0.995,0.767 -1.575,1.081c-0.579,0.313 -1.213,0.556 -1.903,0.728c-0.689,0.172 -1.433,0.258 -2.231,0.258Z" style="fill:#a6acb9;fill-rule:nonzero;"/><path d="M175.52,42.48c-0.971,0 -1.88,-0.25 -2.726,-0.751c-0.845,-0.502 -1.527,-1.191 -2.044,-2.068c-0.516,-0.877 -0.775,-1.871 -0.775,-2.984c0,-0.845 0.145,-1.624 0.435,-2.337c0.29,-0.713 0.701,-1.331 1.233,-1.856c0.533,-0.525 1.159,-0.936 1.88,-1.234c0.72,-0.297 1.511,-0.446 2.373,-0.446c0.939,0 1.742,0.188 2.408,0.564c0.665,0.376 1.233,0.818 1.703,1.327c0.47,0.509 0.861,0.983 1.175,1.422l-0,2.443c-0.329,-0.454 -0.729,-0.893 -1.199,-1.316c-0.469,-0.423 -0.975,-0.771 -1.515,-1.045c-0.54,-0.274 -1.085,-0.411 -1.633,-0.411c-0.485,-0 -0.92,0.07 -1.304,0.211c-0.383,0.141 -0.712,0.337 -0.986,0.588c-0.274,0.25 -0.482,0.556 -0.623,0.916c-0.141,0.36 -0.211,0.752 -0.211,1.174c-0,0.533 0.109,1.015 0.329,1.445c0.219,0.431 0.544,0.768 0.975,1.011c0.43,0.242 0.943,0.364 1.538,0.364c0.564,-0.016 1.12,-0.18 1.668,-0.494c0.549,-0.313 1.081,-0.697 1.598,-1.151c0.517,-0.454 0.995,-0.893 1.433,-1.315l0,2.56c-0.298,0.314 -0.63,0.662 -0.998,1.046c-0.368,0.384 -0.78,0.756 -1.234,1.116c-0.454,0.36 -0.971,0.654 -1.55,0.881c-0.58,0.227 -1.23,0.34 -1.95,0.34Zm6.93,-0.141c-0.877,0 -1.621,-0.281 -2.232,-0.845c-0.611,-0.564 -0.916,-1.379 -0.916,-2.444l0,-13.015l3.501,-0l-0,12.686c-0,0.251 0.054,0.427 0.164,0.529c0.11,0.102 0.243,0.153 0.399,0.153c0.126,-0 0.235,-0.012 0.329,-0.035c0.094,-0.024 0.173,-0.044 0.235,-0.059l0.729,2.514c-0.204,0.109 -0.509,0.223 -0.917,0.34c-0.407,0.118 -0.838,0.176 -1.292,0.176Zm-5.333,-13.508l0,-2.796l5.31,-0l-0,2.796l-5.31,-0Z" style="fill:#a6acb9;fill-rule:nonzero;"/><path d="M165.879,39.177c-1.019,0 -1.846,0.827 -1.846,1.846c0,1.018 0.827,1.845 1.846,1.845c1.018,-0 1.845,-0.827 1.845,-1.845c0,-1.019 -0.827,-1.846 -1.845,-1.846Zm-0,0.916c0.513,0 0.929,0.417 0.929,0.93c0,0.513 -0.416,0.929 -0.929,0.929c-0.513,0 -0.93,-0.416 -0.93,-0.929c0,-0.513 0.417,-0.93 0.93,-0.93Z" style="fill:#a6acb9;"/><path d="M165.879,32.101c-1.019,-0 -1.846,0.826 -1.846,1.845c0,1.018 0.827,1.845 1.846,1.845c1.018,0 1.845,-0.827 1.845,-1.845c0,-1.019 -0.827,-1.845 -1.845,-1.845Zm-0,0.915c0.513,0 0.929,0.417 0.929,0.93c0,0.513 -0.416,0.929 -0.929,0.929c-0.513,0 -0.93,-0.416 -0.93,-0.929c0,-0.513 0.417,-0.93 0.93,-0.93Z" style="fill:#a6acb9;"/><path d="M156.321,42.945c-0.779,0 -1.512,-0.137 -2.199,-0.412c-0.687,-0.275 -1.298,-0.661 -1.833,-1.157c-0.534,-0.496 -0.95,-1.092 -1.248,-1.787c-0.298,-0.694 -0.447,-1.477 -0.447,-2.348c0,-0.87 0.149,-1.657 0.447,-2.359c0.298,-0.703 0.714,-1.302 1.248,-1.798c0.535,-0.497 1.146,-0.878 1.833,-1.146c0.687,-0.267 1.42,-0.4 2.199,-0.4c0.764,-0 1.493,0.133 2.188,0.4c0.695,0.268 1.305,0.649 1.832,1.146c0.527,0.496 0.94,1.095 1.237,1.798c0.298,0.702 0.447,1.489 0.447,2.359c-0,0.871 -0.149,1.654 -0.447,2.348c-0.297,0.695 -0.71,1.291 -1.237,1.787c-0.527,0.496 -1.134,0.882 -1.821,1.157c-0.687,0.275 -1.42,0.412 -2.199,0.412Zm0,-1.076c0.855,-0 1.615,-0.195 2.279,-0.584c0.665,-0.39 1.188,-0.928 1.57,-1.615c0.381,-0.688 0.572,-1.497 0.572,-2.429c0,-0.931 -0.191,-1.741 -0.572,-2.428c-0.382,-0.687 -0.905,-1.225 -1.57,-1.615c-0.664,-0.389 -1.424,-0.584 -2.279,-0.584c-0.855,0 -1.619,0.195 -2.291,0.584c-0.672,0.39 -1.198,0.928 -1.58,1.615c-0.382,0.687 -0.573,1.497 -0.573,2.428c0,0.932 0.191,1.741 0.573,2.429c0.382,0.687 0.908,1.225 1.58,1.615c0.672,0.389 1.436,0.584 2.291,0.584Z" style="fill:#a6acb9;fill-rule:nonzero;"/><path d="M142.258,42.922c-0.916,0 -1.76,-0.225 -2.531,-0.675c-0.771,-0.451 -1.39,-1.088 -1.856,-1.913c-0.465,-0.825 -0.698,-1.795 -0.698,-2.909c-0,-0.901 0.145,-1.711 0.435,-2.428c0.29,-0.718 0.691,-1.337 1.202,-1.856c0.512,-0.519 1.096,-0.916 1.753,-1.191c0.657,-0.275 1.351,-0.412 2.084,-0.412c0.718,-0 1.363,0.114 1.936,0.343c0.573,0.229 1.096,0.531 1.569,0.905c0.474,0.374 0.901,0.775 1.283,1.203l-0,1.03c-0.397,-0.427 -0.828,-0.82 -1.294,-1.179c-0.466,-0.359 -0.974,-0.646 -1.524,-0.859c-0.549,-0.214 -1.153,-0.321 -1.809,-0.321c-0.596,-0 -1.157,0.115 -1.684,0.344c-0.527,0.229 -0.993,0.553 -1.397,0.973c-0.405,0.42 -0.718,0.92 -0.939,1.501c-0.222,0.58 -0.333,1.221 -0.333,1.924c0,0.901 0.18,1.687 0.539,2.359c0.359,0.672 0.84,1.184 1.443,1.535c0.603,0.351 1.271,0.519 2.004,0.504c0.672,-0.015 1.294,-0.141 1.867,-0.378c0.573,-0.237 1.107,-0.546 1.604,-0.928c0.496,-0.382 0.95,-0.786 1.363,-1.214l-0,1.123c-0.275,0.29 -0.592,0.58 -0.951,0.87c-0.359,0.29 -0.744,0.561 -1.157,0.813c-0.412,0.252 -0.859,0.455 -1.34,0.607c-0.481,0.153 -1.004,0.229 -1.569,0.229Zm6.299,-0.045c-0.626,-0 -1.111,-0.218 -1.454,-0.653c-0.344,-0.436 -0.516,-1.058 -0.516,-1.867l0,-13.47l1.237,0l0,13.424c0,0.519 0.084,0.886 0.252,1.099c0.168,0.214 0.39,0.321 0.665,0.321c0.198,0 0.378,-0.023 0.538,-0.069c0.16,-0.045 0.286,-0.106 0.378,-0.183l0.275,1.031c-0.153,0.107 -0.351,0.195 -0.596,0.263c-0.244,0.069 -0.504,0.104 -0.779,0.104Zm-4.627,-14.913l0,-1.077l3.826,0l-0,1.077l-3.826,0Z" style="fill:#a6acb9;fill-rule:nonzero;"/><path d="M132.766,42.602l-0,-6.712c-0,-0.519 -0.054,-0.977 -0.16,-1.375c-0.107,-0.397 -0.279,-0.729 -0.516,-0.996c-0.237,-0.267 -0.523,-0.47 -0.859,-0.607c-0.336,-0.137 -0.733,-0.206 -1.191,-0.206c-0.458,-0 -0.92,0.088 -1.386,0.263c-0.466,0.176 -0.931,0.416 -1.397,0.722c-0.466,0.305 -0.924,0.668 -1.375,1.088c-0.45,0.42 -0.889,0.882 -1.317,1.386l0,-1.1c0.443,-0.504 0.89,-0.969 1.34,-1.397c0.451,-0.428 0.917,-0.802 1.398,-1.123c0.481,-0.32 0.977,-0.568 1.489,-0.744c0.511,-0.176 1.049,-0.263 1.614,-0.263c0.55,-0 1.05,0.084 1.501,0.252c0.45,0.168 0.832,0.427 1.145,0.778c0.313,0.352 0.554,0.791 0.722,1.318c0.168,0.526 0.252,1.156 0.252,1.889l-0,6.827l-1.26,-0Zm-11.545,-0l-0,-1.077l6.07,0l0,1.077l-6.07,-0Zm2.657,-0l-0,-10.79l1.26,0l-0,10.79l-1.26,-0Zm-2.657,-9.713l-0,-1.077l3.756,0l0,1.077l-3.756,0Zm9.369,9.713l-0,-1.077l5.818,0l0,1.077l-5.818,-0Z" style="fill:#a6acb9;fill-rule:nonzero;"/><path d="M118.339,42.762c-0.397,0 -0.737,-0.099 -1.02,-0.298c-0.282,-0.198 -0.5,-0.485 -0.652,-0.859c-0.153,-0.374 -0.23,-0.828 -0.23,-1.363l0,-4.65c0,-0.733 -0.145,-1.317 -0.435,-1.752c-0.29,-0.436 -0.664,-0.745 -1.122,-0.928c-0.458,-0.183 -0.97,-0.275 -1.535,-0.275c-0.809,0 -1.581,0.103 -2.314,0.309c-0.733,0.206 -1.458,0.462 -2.176,0.768l-0.298,-1.054c0.749,-0.321 1.535,-0.592 2.36,-0.813c0.825,-0.222 1.664,-0.332 2.52,-0.332c0.794,-0 1.512,0.137 2.153,0.412c0.641,0.275 1.145,0.714 1.512,1.317c0.366,0.603 0.55,1.401 0.55,2.394l-0,4.536c-0,0.503 0.08,0.878 0.24,1.122c0.16,0.244 0.393,0.366 0.699,0.366c0.168,0 0.324,-0.03 0.469,-0.091c0.145,-0.061 0.271,-0.115 0.378,-0.161l0.298,0.963c-0.137,0.091 -0.324,0.179 -0.561,0.263c-0.237,0.084 -0.516,0.126 -0.836,0.126Zm-6.529,0.137c-0.672,0 -1.305,-0.129 -1.901,-0.389c-0.596,-0.26 -1.073,-0.638 -1.432,-1.134c-0.359,-0.496 -0.538,-1.103 -0.538,-1.821c-0,-0.718 0.202,-1.336 0.607,-1.855c0.405,-0.52 0.947,-0.921 1.626,-1.203c0.68,-0.283 1.44,-0.424 2.28,-0.424c0.87,0 1.657,0.096 2.359,0.286c0.703,0.191 1.436,0.424 2.199,0.699l0,0.962c-0.84,-0.32 -1.615,-0.55 -2.325,-0.687c-0.71,-0.137 -1.409,-0.214 -2.096,-0.229c-0.596,-0.015 -1.149,0.069 -1.661,0.252c-0.511,0.183 -0.931,0.454 -1.26,0.813c-0.328,0.359 -0.492,0.813 -0.492,1.363c-0,0.489 0.134,0.905 0.401,1.249c0.267,0.343 0.618,0.599 1.054,0.767c0.435,0.168 0.897,0.252 1.385,0.252c0.52,-0 1.054,-0.092 1.604,-0.275c0.55,-0.183 1.111,-0.45 1.684,-0.802c0.572,-0.351 1.141,-0.756 1.706,-1.214l-0.023,0.985c-0.55,0.458 -1.115,0.867 -1.695,1.226c-0.58,0.359 -1.164,0.645 -1.752,0.859c-0.588,0.214 -1.165,0.32 -1.73,0.32Z" style="fill:#a6acb9;fill-rule:nonzero;"/><g><path d="M52.449,42.602c-0.55,-0 -1.108,-0.081 -1.673,-0.241c-0.565,-0.16 -1.099,-0.382 -1.603,-0.664c-0.504,-0.283 -0.943,-0.6 -1.317,-0.951c-0.375,-0.351 -0.653,-0.718 -0.836,-1.099l0.664,0.343l-0,2.314l-1.031,-0l0,-3.413l0.527,-0.092c0.397,0.535 0.87,1.016 1.42,1.443c0.55,0.428 1.149,0.768 1.798,1.02c0.649,0.252 1.31,0.378 1.982,0.378c0.443,-0 0.855,-0.062 1.237,-0.184c0.382,-0.122 0.695,-0.309 0.939,-0.561c0.244,-0.252 0.366,-0.561 0.366,-0.928c0,-0.351 -0.095,-0.66 -0.286,-0.927c-0.191,-0.268 -0.454,-0.497 -0.79,-0.688c-0.336,-0.19 -0.726,-0.358 -1.168,-0.504c-0.443,-0.145 -0.924,-0.278 -1.444,-0.4c-0.778,-0.199 -1.504,-0.439 -2.176,-0.722c-0.672,-0.283 -1.221,-0.638 -1.649,-1.065c-0.428,-0.428 -0.641,-0.962 -0.641,-1.604c-0,-0.549 0.152,-1.034 0.458,-1.454c0.305,-0.42 0.74,-0.756 1.305,-1.008c0.565,-0.252 1.214,-0.378 1.947,-0.378c0.718,-0 1.409,0.13 2.074,0.389c0.664,0.26 1.24,0.611 1.729,1.054c0.489,0.443 0.855,0.932 1.1,1.466l-0.619,-0.366l0,-2.245l1.031,-0l-0,3.413l-0.573,0.069c-0.305,-0.611 -0.702,-1.127 -1.191,-1.547c-0.489,-0.42 -1.023,-0.74 -1.603,-0.962c-0.581,-0.221 -1.169,-0.332 -1.764,-0.332c-0.489,0 -0.936,0.073 -1.34,0.218c-0.405,0.145 -0.726,0.351 -0.962,0.618c-0.237,0.267 -0.355,0.584 -0.355,0.951c-0,0.32 0.095,0.599 0.286,0.836c0.191,0.237 0.454,0.447 0.79,0.63c0.336,0.183 0.722,0.351 1.157,0.504c0.435,0.153 0.897,0.29 1.386,0.412c0.779,0.199 1.516,0.435 2.21,0.71c0.695,0.275 1.256,0.638 1.684,1.088c0.428,0.451 0.641,1.043 0.641,1.776c0,0.595 -0.179,1.095 -0.538,1.5c-0.359,0.405 -0.817,0.706 -1.374,0.905c-0.558,0.198 -1.157,0.298 -1.798,0.298Z" style="fill:#a6acb9;fill-rule:nonzero;"/><path d="M64.658,42.625c-0.703,-0 -1.394,-0.115 -2.073,-0.344c-0.68,-0.229 -1.291,-0.573 -1.833,-1.031c-0.542,-0.458 -0.973,-1.023 -1.294,-1.695c-0.321,-0.672 -0.481,-1.443 -0.481,-2.314c0,-0.992 0.168,-1.859 0.504,-2.6c0.336,-0.74 0.786,-1.363 1.351,-1.866c0.566,-0.504 1.192,-0.886 1.879,-1.146c0.687,-0.259 1.374,-0.389 2.062,-0.389c0.839,-0 1.588,0.141 2.244,0.424c0.657,0.282 1.176,0.675 1.558,1.179c0.382,0.504 0.573,1.085 0.573,1.741c-0,0.672 -0.21,1.237 -0.63,1.695c-0.42,0.458 -0.958,0.802 -1.615,1.031c-0.657,0.229 -1.352,0.344 -2.085,0.344c-0.916,-0 -1.771,-0.111 -2.565,-0.332c-0.794,-0.222 -1.558,-0.47 -2.291,-0.745l-0.023,-0.916c0.779,0.321 1.554,0.565 2.325,0.733c0.771,0.168 1.569,0.252 2.394,0.252c0.55,-0 1.065,-0.077 1.546,-0.229c0.481,-0.153 0.882,-0.382 1.203,-0.687c0.321,-0.306 0.481,-0.688 0.481,-1.146c-0,-0.702 -0.286,-1.256 -0.859,-1.661c-0.573,-0.404 -1.31,-0.607 -2.211,-0.607c-0.549,0 -1.099,0.107 -1.649,0.321c-0.55,0.214 -1.046,0.527 -1.489,0.939c-0.443,0.413 -0.802,0.924 -1.077,1.535c-0.274,0.611 -0.412,1.313 -0.412,2.107c0,0.871 0.214,1.631 0.641,2.28c0.428,0.649 0.982,1.145 1.661,1.489c0.68,0.343 1.409,0.515 2.188,0.515c0.886,0 1.638,-0.149 2.256,-0.447c0.619,-0.297 1.188,-0.675 1.707,-1.133l0.595,0.847c-0.397,0.351 -0.82,0.668 -1.271,0.951c-0.45,0.282 -0.947,0.504 -1.489,0.664c-0.542,0.16 -1.149,0.241 -1.821,0.241Z" style="fill:#a6acb9;fill-rule:nonzero;"/><path d="M71.141,32.591l-0,-1.076l3.688,-0l-0,1.076l-3.688,0Zm2.657,9.553l-0,-10.629l1.26,-0l-0,10.629l-1.26,-0Zm-2.657,0.16l-0,-1.077l6.07,0l0,1.077l-6.07,-0Zm10.903,-0.16l0,-6.689c0,-0.657 -0.091,-1.211 -0.274,-1.661c-0.184,-0.451 -0.455,-0.794 -0.814,-1.031c-0.359,-0.237 -0.813,-0.355 -1.363,-0.355c-0.565,0 -1.141,0.145 -1.729,0.435c-0.588,0.29 -1.168,0.695 -1.741,1.214c-0.573,0.52 -1.119,1.123 -1.638,1.81l0,-1.1c0.504,-0.687 1.046,-1.294 1.627,-1.821c0.58,-0.527 1.194,-0.946 1.844,-1.26c0.649,-0.313 1.317,-0.469 2.004,-0.469c0.519,-0 0.981,0.088 1.386,0.263c0.404,0.176 0.752,0.436 1.042,0.779c0.29,0.344 0.515,0.768 0.676,1.271c0.16,0.504 0.24,1.1 0.24,1.787l0,6.827l-1.26,-0Zm-2.176,0.16l0,-1.077l5.59,0l-0,1.077l-5.59,-0Zm10.377,-0.16l0,-6.689c0,-0.489 -0.046,-0.924 -0.137,-1.306c-0.092,-0.382 -0.241,-0.699 -0.447,-0.951c-0.206,-0.252 -0.462,-0.446 -0.767,-0.584c-0.306,-0.137 -0.665,-0.206 -1.077,-0.206c-0.565,0 -1.142,0.145 -1.729,0.435c-0.588,0.29 -1.169,0.695 -1.741,1.214c-0.573,0.52 -1.119,1.123 -1.638,1.81l-0,-1.1c0.519,-0.687 1.065,-1.294 1.638,-1.821c0.572,-0.527 1.179,-0.946 1.821,-1.26c0.641,-0.313 1.313,-0.469 2.016,-0.469c0.503,-0 0.962,0.088 1.374,0.263c0.412,0.176 0.76,0.436 1.042,0.779c0.283,0.344 0.504,0.768 0.665,1.271c0.16,0.504 0.24,1.1 0.24,1.787l0,6.827l-1.26,-0Zm-2.153,0.16l-0,-1.077l5.772,0l0,1.077l-5.772,-0Z" style="fill:#a6acb9;fill-rule:nonzero;"/><path d="M101.08,42.625c-0.702,-0 -1.393,-0.115 -2.073,-0.344c-0.679,-0.229 -1.29,-0.573 -1.832,-1.031c-0.543,-0.458 -0.974,-1.023 -1.295,-1.695c-0.32,-0.672 -0.481,-1.443 -0.481,-2.314c0,-0.992 0.168,-1.859 0.504,-2.6c0.336,-0.74 0.787,-1.363 1.352,-1.866c0.565,-0.504 1.191,-0.886 1.878,-1.146c0.687,-0.259 1.375,-0.389 2.062,-0.389c0.84,-0 1.588,0.141 2.245,0.424c0.656,0.282 1.176,0.675 1.557,1.179c0.382,0.504 0.573,1.085 0.573,1.741c-0,0.672 -0.21,1.237 -0.63,1.695c-0.42,0.458 -0.958,0.802 -1.615,1.031c-0.657,0.229 -1.351,0.344 -2.084,0.344c-0.917,-0 -1.772,-0.111 -2.566,-0.332c-0.794,-0.222 -1.558,-0.47 -2.291,-0.745l-0.023,-0.916c0.779,0.321 1.554,0.565 2.325,0.733c0.772,0.168 1.57,0.252 2.394,0.252c0.55,-0 1.065,-0.077 1.546,-0.229c0.481,-0.153 0.882,-0.382 1.203,-0.687c0.321,-0.306 0.481,-0.688 0.481,-1.146c0,-0.702 -0.286,-1.256 -0.859,-1.661c-0.573,-0.404 -1.309,-0.607 -2.21,-0.607c-0.55,0 -1.1,0.107 -1.65,0.321c-0.55,0.214 -1.046,0.527 -1.489,0.939c-0.443,0.413 -0.801,0.924 -1.076,1.535c-0.275,0.611 -0.413,1.313 -0.413,2.107c0,0.871 0.214,1.631 0.642,2.28c0.427,0.649 0.981,1.145 1.66,1.489c0.68,0.343 1.409,0.515 2.188,0.515c0.886,0 1.638,-0.149 2.256,-0.447c0.619,-0.297 1.188,-0.675 1.707,-1.133l0.596,0.847c-0.397,0.351 -0.821,0.668 -1.272,0.951c-0.45,0.282 -0.947,0.504 -1.489,0.664c-0.542,0.16 -1.149,0.241 -1.821,0.241Z" style="fill:#a6acb9;fill-rule:nonzero;"/></g></g></g></svg>