<?xml version="1.0" encoding="UTF-8" standalone="no"?><!DOCTYPE svg PUBLIC "-//W3C//DTD SVG 1.1//EN" "http://www.w3.org/Graphics/SVG/1.1/DTD/svg11.dtd"><svg width="164px" height="211px" version="1.1" xmlns="http://www.w3.org/2000/svg" xmlns:xlink="http://www.w3.org/1999/xlink" xml:space="preserve" xmlns:serif="http://www.serif.com/" style="fill-rule:evenodd;clip-rule:evenodd;stroke-linejoin:round;stroke-miterlimit:2;"><g transform="matrix(1,0,0,1,-3322.21,-488.5)"><g transform="matrix(1,0,0,1,-2002,0)"><g id="Linhas" transform="matrix(3.1993,0,0,3.59922,-18525.3,152.811)"><g transform="matrix(0.312508,0,0,0.277785,5657.93,-200.459)"><path d="M5875.4,1192.74C5872.23,1189.57 5867.1,1189.57 5863.93,1192.74L5802.2,1254.46C5799.03,1257.63 5799.03,1262.77 5802.2,1265.93C5805.36,1269.1 5810.5,1269.1 5813.67,1265.93L5875.4,1204.2C5878.57,1201.04 5878.57,1195.9 5875.4,1192.74Z" style="fill:rgb(187,232,93);"/></g><g transform="matrix(0.104384,7.71007e-18,3.46953e-17,0.187744,7362.86,50.4948)"><path d="M927.419,444.154C927.419,437.539 916.553,432.169 903.169,432.169C889.785,432.169 878.919,437.539 878.919,444.154L878.919,444.184C878.919,450.799 889.785,456.169 903.169,456.169C916.553,456.169 927.419,450.799 927.419,444.184L927.419,444.154Z" style="fill:rgb(152,93,232);"/></g><g transform="matrix(0.312508,0,0,0.277785,5709.17,-177.799)"><path d="M5705.02,1052.51C5701.86,1055.68 5701.86,1060.82 5705.02,1063.98C5708.19,1067.15 5713.33,1067.15 5716.49,1063.98L5625.8,1154.68C5622.63,1157.84 5617.49,1157.84 5614.33,1154.68C5611.16,1151.51 5611.16,1146.37 5614.33,1143.21L5705.02,1052.51Z" style="fill:rgb(66,189,255);"/></g><g transform="matrix(0.312508,0,0,0.277785,5709.17,-177.799)"><path d="M5746.28,1022.72C5749.45,1025.88 5749.45,1031.02 5746.28,1034.19L5716.49,1063.98C5713.33,1067.15 5708.19,1067.15 5705.02,1063.98C5701.86,1060.82 5701.86,1055.68 5705.02,1052.51L5734.82,1022.72C5737.98,1019.55 5743.12,1019.55 5746.28,1022.72Z" style="fill:rgb(69,81,190);"/></g><g transform="matrix(0.312508,0,0,0.277785,5709.17,-177.799)"><path d="M5691.79,1023.68C5688.63,1020.51 5683.49,1020.51 5680.32,1023.68L5625.62,1078.38C5622.45,1081.55 5622.45,1086.69 5625.62,1089.85C5628.78,1093.02 5633.93,1093.02 5637.09,1089.85L5691.79,1035.15C5694.96,1031.98 5694.96,1026.84 5691.79,1023.68Z" style="fill:rgb(232,93,150);"/></g><g transform="matrix(0.312508,0,0,0.277785,5709.17,-177.799)"><path d="M5671.38,989.513C5674.55,992.678 5674.55,997.818 5671.38,1000.98L5646.72,1025.64C5643.56,1028.8 5638.42,1028.8 5635.25,1025.64C5632.09,1022.47 5632.09,1017.34 5635.25,1014.17L5659.91,989.513C5663.08,986.348 5668.22,986.348 5671.38,989.513Z" style="fill:rgb(60,182,140);"/></g><g transform="matrix(0.312508,0,0,0.277785,5709.17,-177.799)"><path d="M5736.6,978.19C5733.43,975.025 5728.3,975.025 5725.13,978.19L5705.54,997.782C5702.37,1000.95 5702.37,1006.09 5705.54,1009.25C5708.7,1012.42 5713.84,1012.42 5717.01,1009.25L5736.6,989.66C5739.76,986.495 5739.76,981.355 5736.6,978.19Z" style="fill:rgb(255,207,0);"/></g></g></g></g></svg>