<?xml version="1.0" encoding="UTF-8" standalone="no"?><!DOCTYPE svg PUBLIC "-//W3C//DTD SVG 1.1//EN" "http://www.w3.org/Graphics/SVG/1.1/DTD/svg11.dtd"><svg width="220px" height="87px" version="1.1" xmlns="http://www.w3.org/2000/svg" xmlns:xlink="http://www.w3.org/1999/xlink" xml:space="preserve" xmlns:serif="http://www.serif.com/" style="fill-rule:evenodd;clip-rule:evenodd;stroke-linejoin:round;stroke-miterlimit:2;"><g transform="matrix(1,0,0,1,-3537.21,-768.5)"><g transform="matrix(1,0,0,1,-2002,0)"><g id="Semeando-Devs" serif:id="Semeando Devs" transform="matrix(0.410256,0,0,0.410256,3354.51,630.751)"><g id="Linhas"><g transform="matrix(1.00002,0,0,1.00002,-18.2335,-721.925)"><path d="M5875.4,1192.74C5872.23,1189.57 5867.1,1189.57 5863.93,1192.74L5802.2,1254.46C5799.03,1257.63 5799.03,1262.77 5802.2,1265.93C5805.36,1269.1 5810.5,1269.1 5813.67,1265.93L5875.4,1204.2C5878.57,1201.04 5878.57,1195.9 5875.4,1192.74Z" style="fill:rgb(187,232,93);"/></g><g transform="matrix(0.334029,2.77562e-17,1.11025e-16,0.675878,5031.62,181.781)"><path d="M927.419,444.154C927.419,437.539 916.553,432.169 903.169,432.169C889.785,432.169 878.919,437.539 878.919,444.154L878.919,444.184C878.919,450.799 889.785,456.169 903.169,456.169C916.553,456.169 927.419,450.799 927.419,444.184L927.419,444.154Z" style="fill:rgb(152,93,232);"/></g><g transform="matrix(1.00002,0,0,1.00002,-260.155,-640.077)"><path d="M5705.02,1052.51C5701.86,1055.68 5701.86,1060.82 5705.02,1063.98C5708.19,1067.15 5713.33,1067.15 5716.49,1063.98L5625.8,1154.68C5622.63,1157.84 5617.49,1157.84 5614.33,1154.68C5611.16,1151.51 5611.16,1146.37 5614.33,1143.21L5705.02,1052.51Z" style="fill:rgb(66,189,255);"/></g><g transform="matrix(1.00002,0,0,1.00002,-260.155,-640.077)"><path d="M5746.28,1022.72C5749.45,1025.88 5749.45,1031.02 5746.28,1034.19L5716.49,1063.98C5713.33,1067.15 5708.19,1067.15 5705.02,1063.98C5701.86,1060.82 5701.86,1055.68 5705.02,1052.51L5734.82,1022.72C5737.98,1019.55 5743.12,1019.55 5746.28,1022.72Z" style="fill:rgb(69,81,190);"/></g><g transform="matrix(1.00002,0,0,1.00002,-260.155,-640.077)"><path d="M5691.79,1023.68C5688.63,1020.51 5683.49,1020.51 5680.32,1023.68L5625.62,1078.38C5622.45,1081.55 5622.45,1086.69 5625.62,1089.85C5628.78,1093.02 5633.93,1093.02 5637.09,1089.85L5691.79,1035.15C5694.96,1031.98 5694.96,1026.84 5691.79,1023.68Z" style="fill:rgb(232,93,150);"/></g><g transform="matrix(1.00002,0,0,1.00002,-260.155,-640.077)"><path d="M5671.38,989.513C5674.55,992.678 5674.55,997.818 5671.38,1000.98L5646.72,1025.64C5643.56,1028.8 5638.42,1028.8 5635.25,1025.64C5632.09,1022.47 5632.09,1017.34 5635.25,1014.17L5659.91,989.513C5663.08,986.348 5668.22,986.348 5671.38,989.513Z" style="fill:rgb(60,182,140);"/></g><g transform="matrix(1.00002,0,0,1.00002,-260.155,-640.077)"><path d="M5736.6,978.19C5733.43,975.025 5728.3,975.025 5725.13,978.19L5705.54,997.782C5702.37,1000.95 5702.37,1006.09 5705.54,1009.25C5708.7,1012.42 5713.84,1012.42 5717.01,1009.25L5736.6,989.66C5739.76,986.495 5739.76,981.355 5736.6,978.19Z" style="fill:rgb(255,207,0);"/></g></g><g id="Tipografia"><g transform="matrix(1,0,0,1,30.9219,-2088.85)"><path d="M5761.62,2577.46C5759.96,2577.2 5758.69,2575.77 5758.69,2574.04C5758.69,2572.13 5760.23,2570.58 5762.14,2570.58C5764.05,2570.58 5765.6,2572.13 5765.6,2574.04C5765.6,2574.39 5765.55,2574.74 5765.45,2575.06C5765.28,2575.83 5764.95,2576.58 5764.44,2577.32C5763.69,2578.43 5762.65,2579.57 5761.33,2580.76L5759.88,2579.43C5760.57,2578.73 5761.15,2578.07 5761.62,2577.46Z" style="fill:rgb(166,172,185);fill-rule:nonzero;"/></g><g transform="matrix(1,0,0,1,30.9219,-2088.85)"><circle cx="5762.14" cy="2560.22" r="3.458" style="fill:rgb(166,172,185);"/></g><g transform="matrix(3.82174,0,0,3.82174,2645.75,-737.16)"><path d="M819.366,317.216C820.094,317.432 820.644,317.704 821.016,318.032C821.388,318.36 821.574,318.772 821.574,319.268C821.574,319.588 821.482,319.876 821.298,320.132C821.114,320.388 820.858,320.59 820.53,320.738C820.202,320.886 819.83,320.96 819.414,320.96C818.606,320.96 817.946,320.728 817.434,320.264L817.434,320.804L816.162,320.804L816.162,318.92L816.966,318.86C817.158,319.14 817.458,319.368 817.866,319.544C818.274,319.72 818.642,319.808 818.97,319.808C819.194,319.808 819.368,319.774 819.492,319.706C819.616,319.638 819.678,319.548 819.678,319.436C819.678,319.316 819.582,319.2 819.39,319.088C819.198,318.976 818.818,318.84 818.25,318.68C817.522,318.48 816.986,318.224 816.642,317.912C816.298,317.6 816.126,317.196 816.126,316.7C816.126,316.388 816.21,316.102 816.378,315.842C816.546,315.582 816.786,315.374 817.098,315.218C817.41,315.062 817.766,314.984 818.166,314.984C818.886,314.984 819.478,315.212 819.942,315.668L819.942,315.14L821.214,315.14L821.214,317.012L820.422,317.084C819.998,316.452 819.43,316.136 818.718,316.136C818.502,316.136 818.332,316.168 818.208,316.232C818.084,316.296 818.022,316.384 818.022,316.496C818.022,316.616 818.116,316.726 818.304,316.826C818.492,316.926 818.846,317.056 819.366,317.216Z" style="fill:rgb(166,172,185);fill-rule:nonzero;"/></g><g transform="matrix(3.82174,0,0,3.82174,2616,-737.16)"><path d="M823.374,316.568L822.654,316.568L820.23,320.948L819.21,320.948L816.702,316.568L816.018,316.568L816.018,315.14L819.33,315.14L819.33,316.412L818.61,316.412L819.906,318.86L821.142,316.412L820.35,316.412L820.35,315.14L823.374,315.14L823.374,316.568Z" style="fill:rgb(166,172,185);fill-rule:nonzero;"/></g><g transform="matrix(3.82174,0,0,3.82174,2590.62,-737.16)"><path d="M822.33,319.904C821.954,320.232 821.52,320.49 821.028,320.678C820.536,320.866 819.998,320.96 819.414,320.96C818.838,320.96 818.296,320.846 817.788,320.618C817.28,320.39 816.87,320.058 816.558,319.622C816.246,319.186 816.09,318.668 816.09,318.068C816.09,317.468 816.246,316.932 816.558,316.46C816.87,315.988 817.282,315.624 817.794,315.368C818.306,315.112 818.858,314.984 819.45,314.984C819.97,314.984 820.432,315.06 820.836,315.212C821.24,315.364 821.556,315.58 821.784,315.86C822.012,316.14 822.126,316.464 822.126,316.832C822.126,317.392 821.896,317.822 821.436,318.122C820.976,318.422 820.418,318.572 819.762,318.572C819.394,318.572 819.056,318.536 818.748,318.464C818.44,318.392 818.134,318.284 817.83,318.14C817.862,318.548 818.034,318.866 818.346,319.094C818.658,319.322 819.038,319.436 819.486,319.436C820.262,319.436 820.962,319.196 821.586,318.716L822.33,319.904ZM819.594,316.388C819.298,316.388 819.012,316.46 818.736,316.604C818.46,316.748 818.242,316.94 818.082,317.18C818.474,317.308 818.878,317.372 819.294,317.372C819.622,317.364 819.872,317.314 820.044,317.222C820.216,317.13 820.302,317 820.302,316.832C820.302,316.704 820.238,316.598 820.11,316.514C819.982,316.43 819.81,316.388 819.594,316.388Z" style="fill:rgb(166,172,185);fill-rule:nonzero;"/></g><g transform="matrix(3.82174,0,0,3.82174,2560.96,-737.16)"><path d="M823.59,320.624C823.462,320.696 823.296,320.758 823.092,320.81C822.888,320.862 822.678,320.888 822.462,320.888C822.142,320.888 821.856,320.816 821.604,320.672C821.352,320.528 821.162,320.324 821.034,320.06C820.386,320.66 819.682,320.96 818.922,320.96C818.426,320.96 817.962,320.83 817.53,320.57C817.098,320.31 816.75,319.954 816.486,319.502C816.222,319.05 816.09,318.548 816.09,317.996C816.09,317.428 816.22,316.916 816.48,316.46C816.74,316.004 817.1,315.644 817.56,315.38C818.02,315.116 818.538,314.984 819.114,314.984C819.754,314.984 820.334,315.196 820.854,315.62L820.854,313.988L819.738,313.988L819.738,312.56L822.642,312.56L822.642,319.04C822.642,319.272 822.738,319.388 822.93,319.388C823.042,319.388 823.138,319.372 823.218,319.34L823.59,320.624ZM817.998,317.996C817.998,318.412 818.126,318.756 818.382,319.028C818.638,319.3 818.986,319.436 819.426,319.436C819.858,319.436 820.334,319.232 820.854,318.824L820.854,316.988C820.414,316.668 819.994,316.508 819.594,316.508C819.106,316.508 818.718,316.644 818.43,316.916C818.142,317.188 817.998,317.548 817.998,317.996Z" style="fill:rgb(166,172,185);fill-rule:nonzero;"/></g><g transform="matrix(2.4375,0,0,2.4375,2617.68,-1433.83)"><path d="M1252.99,786.397C1252.17,786.397 1251.51,787.059 1251.51,787.875C1251.51,788.691 1252.17,789.353 1252.99,789.353C1253.81,789.353 1254.47,788.691 1254.47,787.875C1254.47,787.059 1253.81,786.397 1252.99,786.397ZM1252.99,787.131C1253.4,787.131 1253.74,787.464 1253.74,787.875C1253.74,788.286 1253.4,788.619 1252.99,788.619C1252.58,788.619 1252.25,788.286 1252.25,787.875C1252.25,787.464 1252.58,787.131 1252.99,787.131Z" style="fill:rgb(166,172,185);"/></g><g transform="matrix(2.4375,0,0,2.4375,2617.68,-1433.83)"><path d="M1252.99,780.73C1252.17,780.73 1251.51,781.392 1251.51,782.208C1251.51,783.023 1252.17,783.685 1252.99,783.685C1253.81,783.685 1254.47,783.023 1254.47,782.208C1254.47,781.392 1253.81,780.73 1252.99,780.73ZM1252.99,781.463C1253.4,781.463 1253.74,781.797 1253.74,782.208C1253.74,782.618 1253.4,782.952 1252.99,782.952C1252.58,782.952 1252.25,782.618 1252.25,782.208C1252.25,781.797 1252.58,781.463 1252.99,781.463Z" style="fill:rgb(166,172,185);"/></g><g transform="matrix(3.72633,0,0,3.72633,2599.79,-705.674)"><path d="M819.414,320.96C818.87,320.952 818.368,320.824 817.908,320.576C817.448,320.328 817.084,319.978 816.816,319.526C816.548,319.074 816.414,318.556 816.414,317.972C816.414,317.38 816.548,316.858 816.816,316.406C817.084,315.954 817.448,315.606 817.908,315.362C818.368,315.118 818.87,314.992 819.414,314.984C819.95,314.992 820.446,315.118 820.902,315.362C821.358,315.606 821.722,315.954 821.994,316.406C822.266,316.858 822.402,317.38 822.402,317.972C822.402,318.556 822.268,319.074 822,319.526C821.732,319.978 821.37,320.328 820.914,320.576C820.458,320.824 819.958,320.952 819.414,320.96ZM819.414,320.396C819.862,320.396 820.26,320.294 820.608,320.09C820.956,319.886 821.23,319.602 821.43,319.238C821.63,318.874 821.73,318.452 821.73,317.972C821.73,317.492 821.63,317.07 821.43,316.706C821.23,316.342 820.956,316.058 820.608,315.854C820.26,315.65 819.862,315.548 819.414,315.548C818.966,315.548 818.566,315.65 818.214,315.854C817.862,316.058 817.586,316.342 817.386,316.706C817.186,317.07 817.086,317.492 817.086,317.972C817.086,318.452 817.186,318.874 817.386,319.238C817.586,319.602 817.862,319.886 818.214,320.09C818.566,320.294 818.966,320.396 819.414,320.396Z" style="fill:rgb(166,172,185);fill-rule:nonzero;"/></g><g transform="matrix(3.72633,0,0,3.72633,2573.59,-705.674)"><path d="M823.098,320.744C822.882,320.872 822.642,320.936 822.378,320.936C822.098,320.936 821.87,320.85 821.694,320.678C821.518,320.506 821.41,320.264 821.37,319.952C821.018,320.248 820.658,320.488 820.29,320.672C819.922,320.856 819.518,320.948 819.078,320.948C818.59,320.948 818.144,320.83 817.74,320.594C817.336,320.358 817.014,320.022 816.774,319.586C816.534,319.15 816.414,318.648 816.414,318.08C816.414,317.472 816.544,316.934 816.804,316.466C817.064,315.998 817.414,315.634 817.854,315.374C818.294,315.114 818.77,314.984 819.282,314.984C819.69,314.984 820.06,315.06 820.392,315.212C820.724,315.364 821.042,315.572 821.346,315.836L821.346,313.124L819.954,313.124L819.954,312.56L821.994,312.56L821.994,319.592C821.994,320.088 822.154,320.336 822.474,320.336C822.682,320.336 822.842,320.292 822.954,320.204L823.098,320.744ZM817.086,318.068C817.086,318.524 817.176,318.926 817.356,319.274C817.536,319.622 817.78,319.892 818.088,320.084C818.396,320.276 818.742,320.372 819.126,320.372C819.886,320.372 820.626,320.048 821.346,319.4L821.346,316.388C820.722,315.836 820.062,315.56 819.366,315.56C818.95,315.56 818.568,315.668 818.22,315.884C817.872,316.1 817.596,316.398 817.392,316.778C817.188,317.158 817.086,317.588 817.086,318.068Z" style="fill:rgb(166,172,185);fill-rule:nonzero;"/></g><g transform="matrix(3.72633,0,0,3.72633,2543.39,-705.674)"><path d="M824.106,320.228L824.106,320.792L821.07,320.792L821.07,320.228L822.21,320.228L822.21,317.276C822.21,316.156 821.734,315.596 820.782,315.596C820.374,315.596 819.95,315.728 819.51,315.992C819.07,316.256 818.638,316.616 818.214,317.072L818.214,320.228L819.354,320.228L819.354,320.792L816.162,320.792L816.162,320.228L817.554,320.228L817.554,315.704L816.162,315.704L816.162,315.14L818.214,315.14L818.214,316.508C818.67,316.02 819.122,315.644 819.57,315.38C820.018,315.116 820.486,314.984 820.974,314.984C821.566,314.984 822.03,315.172 822.366,315.548C822.702,315.924 822.87,316.48 822.87,317.216L822.87,320.228L824.106,320.228Z" style="fill:rgb(166,172,185);fill-rule:nonzero;"/></g><g transform="matrix(3.72633,0,0,3.72633,2516.39,-705.674)"><path d="M822.63,320.672C822.43,320.808 822.186,320.876 821.898,320.876C821.634,320.876 821.416,320.792 821.244,320.624C821.072,320.456 820.966,320.216 820.926,319.904C820.022,320.6 819.206,320.948 818.478,320.948C817.91,320.948 817.428,320.792 817.032,320.48C816.636,320.168 816.438,319.74 816.438,319.196C816.438,318.836 816.542,318.518 816.75,318.242C816.958,317.966 817.242,317.752 817.602,317.6C817.962,317.448 818.366,317.372 818.814,317.372C819.182,317.372 819.528,317.406 819.852,317.474C820.176,317.542 820.526,317.644 820.902,317.78L820.902,317.12C820.902,316.576 820.752,316.182 820.452,315.938C820.152,315.694 819.762,315.572 819.282,315.572C818.882,315.572 818.494,315.62 818.118,315.716C817.742,315.812 817.346,315.952 816.93,316.136L816.774,315.584C817.686,315.184 818.538,314.984 819.33,314.984C819.994,314.984 820.528,315.16 820.932,315.512C821.336,315.864 821.538,316.408 821.538,317.144L821.538,319.52C821.538,320.04 821.702,320.3 822.03,320.3C822.15,320.3 822.298,320.256 822.474,320.168L822.63,320.672ZM817.098,319.184C817.098,319.56 817.24,319.852 817.524,320.06C817.808,320.268 818.158,320.372 818.574,320.372C819.27,320.372 820.046,320.048 820.902,319.4L820.902,318.284C820.19,318.036 819.502,317.912 818.838,317.912C818.358,317.912 817.948,318.024 817.608,318.248C817.268,318.472 817.098,318.784 817.098,319.184Z" style="fill:rgb(166,172,185);fill-rule:nonzero;"/></g><g transform="matrix(3.72633,0,0,3.72633,2396.62,-706.256)"><path d="M819.114,317.66C819.866,317.852 820.45,318.082 820.866,318.35C821.282,318.618 821.49,319.008 821.49,319.52C821.49,319.976 821.3,320.328 820.92,320.576C820.54,320.824 820.082,320.948 819.546,320.948C819.098,320.948 818.644,320.848 818.184,320.648C817.724,320.448 817.346,320.196 817.05,319.892L817.05,320.792L816.498,320.792L816.498,319.004L816.786,318.956C817.098,319.388 817.502,319.744 817.998,320.024C818.494,320.304 818.994,320.444 819.498,320.444C819.866,320.444 820.178,320.366 820.434,320.21C820.69,320.054 820.818,319.84 820.818,319.568C820.818,319.224 820.658,318.96 820.338,318.776C820.018,318.592 819.538,318.416 818.898,318.248C818.178,318.072 817.608,317.848 817.188,317.576C816.768,317.304 816.558,316.936 816.558,316.472C816.558,316.048 816.738,315.694 817.098,315.41C817.458,315.126 817.926,314.984 818.502,314.984C818.942,314.984 819.362,315.076 819.762,315.26C820.162,315.444 820.49,315.688 820.746,315.992L820.746,315.14L821.298,315.14L821.298,316.928L820.986,316.964C820.754,316.5 820.418,316.138 819.978,315.878C819.538,315.618 819.078,315.488 818.598,315.488C818.206,315.488 817.88,315.572 817.62,315.74C817.36,315.908 817.23,316.132 817.23,316.412C817.23,316.716 817.392,316.958 817.716,317.138C818.04,317.318 818.506,317.492 819.114,317.66Z" style="fill:rgb(166,172,185);fill-rule:nonzero;"/><path d="M828.294,319.988C827.95,320.292 827.586,320.528 827.202,320.696C826.818,320.864 826.382,320.948 825.894,320.948C825.382,320.948 824.898,320.838 824.442,320.618C823.986,320.398 823.618,320.076 823.338,319.652C823.058,319.228 822.918,318.724 822.918,318.14C822.918,317.484 823.066,316.918 823.362,316.442C823.658,315.966 824.038,315.606 824.502,315.362C824.966,315.118 825.45,314.996 825.954,314.996C826.386,314.996 826.776,315.072 827.124,315.224C827.472,315.376 827.746,315.584 827.946,315.848C828.146,316.112 828.246,316.412 828.246,316.748C828.246,317.092 828.14,317.384 827.928,317.624C827.716,317.864 827.436,318.046 827.088,318.17C826.74,318.294 826.37,318.356 825.978,318.356C825.57,318.356 825.174,318.31 824.79,318.218C824.406,318.126 823.998,318 823.566,317.84C823.558,317.904 823.554,318 823.554,318.128C823.554,318.568 823.66,318.958 823.872,319.298C824.084,319.638 824.368,319.902 824.724,320.09C825.08,320.278 825.458,320.372 825.858,320.372C826.306,320.372 826.696,320.302 827.028,320.162C827.36,320.022 827.678,319.82 827.982,319.556L828.294,319.988ZM825.978,315.548C825.466,315.548 824.986,315.714 824.538,316.046C824.09,316.378 823.79,316.832 823.638,317.408C824.43,317.688 825.182,317.828 825.894,317.828C826.35,317.828 826.746,317.734 827.082,317.546C827.418,317.358 827.586,317.092 827.586,316.748C827.586,316.388 827.438,316.098 827.142,315.878C826.846,315.658 826.458,315.548 825.978,315.548Z" style="fill:rgb(166,172,185);fill-rule:nonzero;"/><path d="M841.206,320.228L841.206,320.792L838.17,320.792L838.17,320.228L839.298,320.228L839.298,317.204C839.298,316.132 838.874,315.596 838.026,315.596C837.642,315.596 837.246,315.722 836.838,315.974C836.43,316.226 836.038,316.576 835.662,317.024L835.662,320.228L836.79,320.228L836.79,320.792L833.862,320.792L833.862,320.228L835.002,320.228L835.002,317.204C835.002,316.684 834.894,316.286 834.678,316.01C834.462,315.734 834.142,315.596 833.718,315.596C833.342,315.596 832.948,315.724 832.536,315.98C832.124,316.236 831.726,316.592 831.342,317.048L831.342,320.228L832.482,320.228L832.482,320.792L829.29,320.792L829.29,320.228L830.682,320.228L830.682,315.704L829.29,315.704L829.29,315.14L831.342,315.14L831.342,316.46C832.174,315.476 833.03,314.984 833.91,314.984C834.358,314.984 834.732,315.114 835.032,315.374C835.332,315.634 835.526,316.012 835.614,316.508C836.454,315.492 837.322,314.984 838.218,314.984C838.754,314.984 839.176,315.166 839.484,315.53C839.792,315.894 839.946,316.428 839.946,317.132L839.946,320.228L841.206,320.228Z" style="fill:rgb(166,172,185);fill-rule:nonzero;"/><path d="M847.386,319.988C847.042,320.292 846.678,320.528 846.294,320.696C845.91,320.864 845.474,320.948 844.986,320.948C844.474,320.948 843.99,320.838 843.534,320.618C843.078,320.398 842.71,320.076 842.43,319.652C842.15,319.228 842.01,318.724 842.01,318.14C842.01,317.484 842.158,316.918 842.454,316.442C842.75,315.966 843.13,315.606 843.594,315.362C844.058,315.118 844.542,314.996 845.046,314.996C845.478,314.996 845.868,315.072 846.216,315.224C846.564,315.376 846.838,315.584 847.038,315.848C847.238,316.112 847.338,316.412 847.338,316.748C847.338,317.092 847.232,317.384 847.02,317.624C846.808,317.864 846.528,318.046 846.18,318.17C845.832,318.294 845.462,318.356 845.07,318.356C844.662,318.356 844.266,318.31 843.882,318.218C843.498,318.126 843.09,318 842.658,317.84C842.65,317.904 842.646,318 842.646,318.128C842.646,318.568 842.752,318.958 842.964,319.298C843.176,319.638 843.46,319.902 843.816,320.09C844.172,320.278 844.55,320.372 844.95,320.372C845.398,320.372 845.788,320.302 846.12,320.162C846.452,320.022 846.77,319.82 847.074,319.556L847.386,319.988ZM845.07,315.548C844.558,315.548 844.078,315.714 843.63,316.046C843.182,316.378 842.882,316.832 842.73,317.408C843.522,317.688 844.274,317.828 844.986,317.828C845.442,317.828 845.838,317.734 846.174,317.546C846.51,317.358 846.678,317.092 846.678,316.748C846.678,316.388 846.53,316.098 846.234,315.878C845.938,315.658 845.55,315.548 845.07,315.548Z" style="fill:rgb(166,172,185);fill-rule:nonzero;"/></g></g></g></g></g></svg>