<?xml version="1.0" encoding="UTF-8" standalone="no"?><!DOCTYPE svg PUBLIC "-//W3C//DTD SVG 1.1//EN" "http://www.w3.org/Graphics/SVG/1.1/DTD/svg11.dtd"><svg width="293px" height="293px" version="1.1" xmlns="http://www.w3.org/2000/svg" xmlns:xlink="http://www.w3.org/1999/xlink" xml:space="preserve" xmlns:serif="http://www.serif.com/" style="fill-rule:evenodd;clip-rule:evenodd;stroke-linejoin:round;stroke-miterlimit:2;"><g transform="matrix(1,0,0,1,-1160.21,-128.5)"><g transform="matrix(1,0,0,1,-4164,0)"><g id="Semeando-Devs" serif:id="Semeando Devs" transform="matrix(1,0,0,1,-1,-207.262)"><g id="Linhas"><g transform="matrix(1.00002,0,0,1.00002,-260.155,-640.077)"><path d="M5875.4,1192.74C5872.23,1189.57 5867.1,1189.57 5863.93,1192.74L5802.2,1254.46C5799.03,1257.63 5799.03,1262.77 5802.2,1265.93C5805.36,1269.1 5810.5,1269.1 5813.67,1265.93L5875.4,1204.2C5878.57,1201.04 5878.57,1195.9 5875.4,1192.74Z" style="fill:rgb(187,232,93);"/></g><g transform="matrix(0.334029,2.77562e-17,1.11025e-16,0.675878,5031.62,181.781)"><path d="M927.419,444.154C927.419,437.539 916.553,432.169 903.169,432.169C889.785,432.169 878.919,437.539 878.919,444.154L878.919,444.184C878.919,450.799 889.785,456.169 903.169,456.169C916.553,456.169 927.419,450.799 927.419,444.184L927.419,444.154Z" style="fill:rgb(152,93,232);"/></g><g transform="matrix(1.00002,0,0,1.00002,-260.155,-640.077)"><path d="M5705.02,1052.51C5701.86,1055.68 5701.86,1060.82 5705.02,1063.98C5708.19,1067.15 5713.33,1067.15 5716.49,1063.98L5625.8,1154.68C5622.63,1157.84 5617.49,1157.84 5614.33,1154.68C5611.16,1151.51 5611.16,1146.37 5614.33,1143.21L5705.02,1052.51Z" style="fill:rgb(66,189,255);"/></g><g transform="matrix(1.00002,0,0,1.00002,-260.155,-640.077)"><path d="M5746.28,1022.72C5749.45,1025.88 5749.45,1031.02 5746.28,1034.19L5716.49,1063.98C5713.33,1067.15 5708.19,1067.15 5705.02,1063.98C5701.86,1060.82 5701.86,1055.68 5705.02,1052.51L5734.82,1022.72C5737.98,1019.55 5743.12,1019.55 5746.28,1022.72Z" style="fill:rgb(69,81,190);"/></g><g transform="matrix(1.00002,0,0,1.00002,-260.155,-640.077)"><path d="M5691.79,1023.68C5688.63,1020.51 5683.49,1020.51 5680.32,1023.68L5625.62,1078.38C5622.45,1081.55 5622.45,1086.69 5625.62,1089.85C5628.78,1093.02 5633.93,1093.02 5637.09,1089.85L5691.79,1035.15C5694.96,1031.98 5694.96,1026.84 5691.79,1023.68Z" style="fill:rgb(232,93,150);"/></g><g transform="matrix(1.00002,0,0,1.00002,-260.155,-640.077)"><path d="M5671.38,989.513C5674.55,992.678 5674.55,997.818 5671.38,1000.98L5646.72,1025.64C5643.56,1028.8 5638.42,1028.8 5635.25,1025.64C5632.09,1022.47 5632.09,1017.34 5635.25,1014.17L5659.91,989.513C5663.08,986.348 5668.22,986.348 5671.38,989.513Z" style="fill:rgb(60,182,140);"/></g><g transform="matrix(1.00002,0,0,1.00002,-260.155,-640.077)"><path d="M5736.6,978.19C5733.43,975.025 5728.3,975.025 5725.13,978.19L5705.54,997.782C5702.37,1000.95 5702.37,1006.09 5705.54,1009.25C5708.7,1012.42 5713.84,1012.42 5717.01,1009.25L5736.6,989.66C5739.76,986.495 5739.76,981.355 5736.6,978.19Z" style="fill:rgb(255,207,0);"/></g></g><g id="Tipografia"><g transform="matrix(1,0,0,1,-211,-2007)"><path d="M5761.62,2577.46C5759.96,2577.2 5758.69,2575.77 5758.69,2574.04C5758.69,2572.13 5760.23,2570.58 5762.14,2570.58C5764.05,2570.58 5765.6,2572.13 5765.6,2574.04C5765.6,2574.39 5765.55,2574.74 5765.45,2575.06C5765.28,2575.83 5764.95,2576.58 5764.44,2577.32C5763.69,2578.43 5762.65,2579.57 5761.33,2580.76L5759.88,2579.43C5760.57,2578.73 5761.15,2578.07 5761.62,2577.46Z" style="fill:rgb(102,102,102);fill-rule:nonzero;"/></g><g transform="matrix(1,0,0,1,-211,-2007)"><circle cx="5762.14" cy="2560.22" r="3.458" style="fill:rgb(102,102,102);"/></g><g transform="matrix(3.82174,0,0,3.82174,2403.82,-655.312)"><path d="M819.366,317.216C820.094,317.432 820.644,317.704 821.016,318.032C821.388,318.36 821.574,318.772 821.574,319.268C821.574,319.588 821.482,319.876 821.298,320.132C821.114,320.388 820.858,320.59 820.53,320.738C820.202,320.886 819.83,320.96 819.414,320.96C818.606,320.96 817.946,320.728 817.434,320.264L817.434,320.804L816.162,320.804L816.162,318.92L816.966,318.86C817.158,319.14 817.458,319.368 817.866,319.544C818.274,319.72 818.642,319.808 818.97,319.808C819.194,319.808 819.368,319.774 819.492,319.706C819.616,319.638 819.678,319.548 819.678,319.436C819.678,319.316 819.582,319.2 819.39,319.088C819.198,318.976 818.818,318.84 818.25,318.68C817.522,318.48 816.986,318.224 816.642,317.912C816.298,317.6 816.126,317.196 816.126,316.7C816.126,316.388 816.21,316.102 816.378,315.842C816.546,315.582 816.786,315.374 817.098,315.218C817.41,315.062 817.766,314.984 818.166,314.984C818.886,314.984 819.478,315.212 819.942,315.668L819.942,315.14L821.214,315.14L821.214,317.012L820.422,317.084C819.998,316.452 819.43,316.136 818.718,316.136C818.502,316.136 818.332,316.168 818.208,316.232C818.084,316.296 818.022,316.384 818.022,316.496C818.022,316.616 818.116,316.726 818.304,316.826C818.492,316.926 818.846,317.056 819.366,317.216Z" style="fill:rgb(102,102,102);fill-rule:nonzero;"/></g><g transform="matrix(3.82174,0,0,3.82174,2374.08,-655.312)"><path d="M823.374,316.568L822.654,316.568L820.23,320.948L819.21,320.948L816.702,316.568L816.018,316.568L816.018,315.14L819.33,315.14L819.33,316.412L818.61,316.412L819.906,318.86L821.142,316.412L820.35,316.412L820.35,315.14L823.374,315.14L823.374,316.568Z" style="fill:rgb(102,102,102);fill-rule:nonzero;"/></g><g transform="matrix(3.82174,0,0,3.82174,2348.7,-655.312)"><path d="M822.33,319.904C821.954,320.232 821.52,320.49 821.028,320.678C820.536,320.866 819.998,320.96 819.414,320.96C818.838,320.96 818.296,320.846 817.788,320.618C817.28,320.39 816.87,320.058 816.558,319.622C816.246,319.186 816.09,318.668 816.09,318.068C816.09,317.468 816.246,316.932 816.558,316.46C816.87,315.988 817.282,315.624 817.794,315.368C818.306,315.112 818.858,314.984 819.45,314.984C819.97,314.984 820.432,315.06 820.836,315.212C821.24,315.364 821.556,315.58 821.784,315.86C822.012,316.14 822.126,316.464 822.126,316.832C822.126,317.392 821.896,317.822 821.436,318.122C820.976,318.422 820.418,318.572 819.762,318.572C819.394,318.572 819.056,318.536 818.748,318.464C818.44,318.392 818.134,318.284 817.83,318.14C817.862,318.548 818.034,318.866 818.346,319.094C818.658,319.322 819.038,319.436 819.486,319.436C820.262,319.436 820.962,319.196 821.586,318.716L822.33,319.904ZM819.594,316.388C819.298,316.388 819.012,316.46 818.736,316.604C818.46,316.748 818.242,316.94 818.082,317.18C818.474,317.308 818.878,317.372 819.294,317.372C819.622,317.364 819.872,317.314 820.044,317.222C820.216,317.13 820.302,317 820.302,316.832C820.302,316.704 820.238,316.598 820.11,316.514C819.982,316.43 819.81,316.388 819.594,316.388Z" style="fill:rgb(102,102,102);fill-rule:nonzero;"/></g><g transform="matrix(3.82174,0,0,3.82174,2319.04,-655.312)"><path d="M823.59,320.624C823.462,320.696 823.296,320.758 823.092,320.81C822.888,320.862 822.678,320.888 822.462,320.888C822.142,320.888 821.856,320.816 821.604,320.672C821.352,320.528 821.162,320.324 821.034,320.06C820.386,320.66 819.682,320.96 818.922,320.96C818.426,320.96 817.962,320.83 817.53,320.57C817.098,320.31 816.75,319.954 816.486,319.502C816.222,319.05 816.09,318.548 816.09,317.996C816.09,317.428 816.22,316.916 816.48,316.46C816.74,316.004 817.1,315.644 817.56,315.38C818.02,315.116 818.538,314.984 819.114,314.984C819.754,314.984 820.334,315.196 820.854,315.62L820.854,313.988L819.738,313.988L819.738,312.56L822.642,312.56L822.642,319.04C822.642,319.272 822.738,319.388 822.93,319.388C823.042,319.388 823.138,319.372 823.218,319.34L823.59,320.624ZM817.998,317.996C817.998,318.412 818.126,318.756 818.382,319.028C818.638,319.3 818.986,319.436 819.426,319.436C819.858,319.436 820.334,319.232 820.854,318.824L820.854,316.988C820.414,316.668 819.994,316.508 819.594,316.508C819.106,316.508 818.718,316.644 818.43,316.916C818.142,317.188 817.998,317.548 817.998,317.996Z" style="fill:rgb(102,102,102);fill-rule:nonzero;"/></g><g transform="matrix(1,0,0,1,-225.049,-1990.31)"><path d="M5776.41,2511.49C5774.56,2511.49 5773.06,2512.99 5773.06,2514.85C5773.06,2516.7 5774.56,2518.21 5776.41,2518.21C5778.27,2518.21 5779.77,2516.7 5779.77,2514.85C5779.77,2512.99 5778.27,2511.49 5776.41,2511.49ZM5776.41,2512.79C5777.55,2512.79 5778.47,2513.71 5778.47,2514.85C5778.47,2515.98 5777.55,2516.91 5776.41,2516.91C5775.28,2516.91 5774.36,2515.98 5774.36,2514.85C5774.36,2513.71 5775.28,2512.79 5776.41,2512.79Z" style="fill:rgb(102,102,102);"/></g><g transform="matrix(1,0,0,1,-225.049,-2004.13)"><path d="M5776.41,2511.49C5774.56,2511.49 5773.06,2512.99 5773.06,2514.85C5773.06,2516.7 5774.56,2518.21 5776.41,2518.21C5778.27,2518.21 5779.77,2516.7 5779.77,2514.85C5779.77,2512.99 5778.27,2511.49 5776.41,2511.49ZM5776.41,2512.79C5777.55,2512.79 5778.47,2513.71 5778.47,2514.85C5778.47,2515.98 5777.55,2516.91 5776.41,2516.91C5775.28,2516.91 5774.36,2515.98 5774.36,2514.85C5774.36,2513.71 5775.28,2512.79 5776.41,2512.79Z" style="fill:rgb(102,102,102);"/></g><g transform="matrix(3.72633,0,0,3.72633,2479.3,-667.755)"><path d="M819.426,320.96C818.882,320.952 818.386,320.824 817.938,320.576C817.49,320.328 817.136,319.98 816.876,319.532C816.616,319.084 816.486,318.564 816.486,317.972C816.486,317.38 816.616,316.858 816.876,316.406C817.136,315.954 817.49,315.606 817.938,315.362C818.386,315.118 818.882,314.992 819.426,314.984C819.962,314.992 820.454,315.118 820.902,315.362C821.35,315.606 821.704,315.954 821.964,316.406C822.224,316.858 822.354,317.38 822.354,317.972C822.354,318.564 822.224,319.084 821.964,319.532C821.704,319.98 821.35,320.328 820.902,320.576C820.454,320.824 819.962,320.952 819.426,320.96ZM819.426,320.588C819.914,320.588 820.35,320.478 820.734,320.258C821.118,320.038 821.418,319.73 821.634,319.334C821.85,318.938 821.958,318.484 821.958,317.972C821.958,317.46 821.85,317.006 821.634,316.61C821.418,316.214 821.118,315.906 820.734,315.686C820.35,315.466 819.914,315.356 819.426,315.356C818.938,315.356 818.5,315.466 818.112,315.686C817.724,315.906 817.422,316.214 817.206,316.61C816.99,317.006 816.882,317.46 816.882,317.972C816.882,318.484 816.99,318.938 817.206,319.334C817.422,319.73 817.724,320.038 818.112,320.258C818.5,320.478 818.938,320.588 819.426,320.588Z" style="fill:rgb(102,102,102);fill-rule:nonzero;"/></g><g transform="matrix(3.72633,0,0,3.72633,2453.1,-667.755)"><path d="M822.99,320.768C822.806,320.888 822.594,320.948 822.354,320.948C822.09,320.948 821.882,320.86 821.73,320.684C821.578,320.508 821.49,320.256 821.466,319.928C820.69,320.608 819.906,320.948 819.114,320.948C818.634,320.948 818.194,320.832 817.794,320.6C817.394,320.368 817.076,320.036 816.84,319.604C816.604,319.172 816.486,318.672 816.486,318.104C816.486,317.488 816.616,316.944 816.876,316.472C817.136,316 817.482,315.634 817.914,315.374C818.346,315.114 818.814,314.984 819.318,314.984C820.078,314.984 820.79,315.276 821.454,315.86L821.454,312.932L820.002,312.932L820.002,312.56L821.85,312.56L821.85,319.712C821.85,320.272 822.022,320.552 822.366,320.552C822.59,320.552 822.766,320.5 822.894,320.396L822.99,320.768ZM816.882,318.08C816.882,318.584 816.978,319.024 817.17,319.4C817.362,319.776 817.622,320.066 817.95,320.27C818.278,320.474 818.642,320.576 819.042,320.576C819.514,320.576 819.948,320.482 820.344,320.294C820.74,320.106 821.11,319.848 821.454,319.52L821.454,316.244C820.79,315.652 820.078,315.356 819.318,315.356C818.878,315.356 818.472,315.472 818.1,315.704C817.728,315.936 817.432,316.26 817.212,316.676C816.992,317.092 816.882,317.56 816.882,318.08Z" style="fill:rgb(102,102,102);fill-rule:nonzero;"/></g><g transform="matrix(3.72633,0,0,3.72633,2422.9,-667.755)"><path d="M823.998,320.42L823.998,320.792L821.106,320.792L821.106,320.42L822.294,320.42L822.294,317.156C822.294,315.956 821.79,315.356 820.782,315.356C820.35,315.356 819.894,315.498 819.414,315.782C818.934,316.066 818.47,316.444 818.022,316.916L818.022,320.42L819.21,320.42L819.21,320.792L816.174,320.792L816.174,320.42L817.626,320.42L817.626,315.512L816.174,315.512L816.174,315.14L818.022,315.14L818.022,316.532C818.486,316.052 818.95,315.674 819.414,315.398C819.878,315.122 820.362,314.984 820.866,314.984C821.434,314.984 821.88,315.16 822.204,315.512C822.528,315.864 822.69,316.388 822.69,317.084L822.69,320.42L823.998,320.42Z" style="fill:rgb(102,102,102);fill-rule:nonzero;"/></g><g transform="matrix(3.72633,0,0,3.72633,2395.9,-667.755)"><path d="M822.534,320.684C822.358,320.812 822.146,320.876 821.898,320.876C821.65,320.876 821.452,320.794 821.304,320.63C821.156,320.466 821.062,320.228 821.022,319.916C820.062,320.604 819.238,320.948 818.55,320.948C818.182,320.948 817.84,320.88 817.524,320.744C817.208,320.608 816.956,320.408 816.768,320.144C816.58,319.88 816.486,319.568 816.486,319.208C816.486,318.856 816.586,318.544 816.786,318.272C816.986,318 817.266,317.788 817.626,317.636C817.986,317.484 818.394,317.408 818.85,317.408C819.218,317.408 819.57,317.442 819.906,317.51C820.242,317.578 820.61,317.676 821.01,317.804L821.01,317.096C821.01,316.48 820.856,316.036 820.548,315.764C820.24,315.492 819.834,315.356 819.33,315.356C818.906,315.356 818.504,315.408 818.124,315.512C817.744,315.616 817.342,315.76 816.918,315.944L816.81,315.572C817.698,315.18 818.538,314.984 819.33,314.984C819.946,314.984 820.446,315.152 820.83,315.488C821.214,315.824 821.406,316.36 821.406,317.096L821.406,319.628C821.406,319.924 821.45,320.144 821.538,320.288C821.626,320.432 821.762,320.504 821.946,320.504C822.066,320.504 822.222,320.452 822.414,320.348L822.534,320.684ZM816.882,319.208C816.882,319.64 817.044,319.976 817.368,320.216C817.692,320.456 818.086,320.576 818.55,320.576C819.278,320.576 820.098,320.236 821.01,319.556L821.01,318.176C820.234,317.912 819.502,317.78 818.814,317.78C818.278,317.78 817.822,317.906 817.446,318.158C817.07,318.41 816.882,318.76 816.882,319.208Z" style="fill:rgb(102,102,102);fill-rule:nonzero;"/></g><g transform="matrix(3.72633,0,0,3.72633,2396.62,-706.256)"><path d="M819.054,317.756C819.55,317.876 819.966,318.002 820.302,318.134C820.638,318.266 820.916,318.45 821.136,318.686C821.356,318.922 821.466,319.22 821.466,319.58C821.466,320.02 821.28,320.358 820.908,320.594C820.536,320.83 820.09,320.948 819.57,320.948C819.106,320.948 818.62,320.828 818.112,320.588C817.604,320.348 817.214,320.064 816.942,319.736L816.942,320.792L816.57,320.792L816.57,319.028L816.75,318.98C817.062,319.452 817.474,319.836 817.986,320.132C818.498,320.428 819.026,320.576 819.57,320.576C819.97,320.576 820.32,320.49 820.62,320.318C820.92,320.146 821.07,319.904 821.07,319.592C821.07,319.2 820.894,318.902 820.542,318.698C820.19,318.494 819.69,318.312 819.042,318.152C818.314,317.976 817.734,317.758 817.302,317.498C816.87,317.238 816.654,316.88 816.654,316.424C816.654,316.008 816.832,315.664 817.188,315.392C817.544,315.12 818.006,314.984 818.574,314.984C819.046,314.984 819.496,315.096 819.924,315.32C820.352,315.544 820.69,315.824 820.938,316.16L820.938,315.14L821.31,315.14L821.31,316.916L821.106,316.94C820.866,316.428 820.518,316.034 820.062,315.758C819.606,315.482 819.11,315.344 818.574,315.344C818.142,315.344 817.78,315.44 817.488,315.632C817.196,315.824 817.05,316.076 817.05,316.388C817.05,316.732 817.228,317.006 817.584,317.21C817.94,317.414 818.43,317.596 819.054,317.756Z" style="fill:rgb(102,102,102);fill-rule:nonzero;"/><path d="M828.15,320.012C827.814,320.308 827.466,320.538 827.106,320.702C826.746,320.866 826.334,320.948 825.87,320.948C825.374,320.948 824.904,320.84 824.46,320.624C824.016,320.408 823.656,320.088 823.38,319.664C823.104,319.24 822.966,318.736 822.966,318.152C822.966,317.488 823.112,316.918 823.404,316.442C823.696,315.966 824.068,315.606 824.52,315.362C824.972,315.118 825.442,314.996 825.93,314.996C826.338,314.996 826.712,315.07 827.052,315.218C827.392,315.366 827.658,315.572 827.85,315.836C828.042,316.1 828.138,316.396 828.138,316.724C828.138,317.06 828.032,317.346 827.82,317.582C827.608,317.818 827.33,317.998 826.986,318.122C826.642,318.246 826.278,318.308 825.894,318.308C825.478,318.308 825.072,318.262 824.676,318.17C824.28,318.078 823.85,317.952 823.386,317.792C823.37,317.936 823.362,318.056 823.362,318.152C823.362,318.624 823.476,319.046 823.704,319.418C823.932,319.79 824.232,320.076 824.604,320.276C824.976,320.476 825.374,320.576 825.798,320.576C826.254,320.576 826.648,320.504 826.98,320.36C827.312,320.216 827.63,320.008 827.934,319.736L828.15,320.012ZM825.93,315.368C825.57,315.368 825.216,315.45 824.868,315.614C824.52,315.778 824.216,316.018 823.956,316.334C823.696,316.65 823.522,317.028 823.434,317.468C824.33,317.78 825.15,317.936 825.894,317.936C826.382,317.936 826.812,317.83 827.184,317.618C827.556,317.406 827.742,317.108 827.742,316.724C827.742,316.316 827.574,315.988 827.238,315.74C826.902,315.492 826.466,315.368 825.93,315.368Z" style="fill:rgb(102,102,102);fill-rule:nonzero;"/><path d="M841.002,320.42L841.002,320.792L838.11,320.792L838.11,320.42L839.298,320.42L839.298,317.084C839.298,315.932 838.846,315.356 837.942,315.356C837.534,315.356 837.108,315.492 836.664,315.764C836.22,316.036 835.798,316.404 835.398,316.868L835.398,320.42L836.586,320.42L836.586,320.792L833.814,320.792L833.814,320.42L835.002,320.42L835.002,317.084C835.002,316.516 834.888,316.086 834.66,315.794C834.432,315.502 834.09,315.356 833.634,315.356C833.226,315.356 832.8,315.494 832.356,315.77C831.912,316.046 831.486,316.42 831.078,316.892L831.078,320.42L832.266,320.42L832.266,320.792L829.23,320.792L829.23,320.42L830.682,320.42L830.682,315.512L829.23,315.512L829.23,315.14L831.078,315.14L831.078,316.508C831.982,315.492 832.862,314.984 833.718,314.984C834.166,314.984 834.536,315.116 834.828,315.38C835.12,315.644 835.298,316.028 835.362,316.532C835.786,316.052 836.216,315.674 836.652,315.398C837.088,315.122 837.546,314.984 838.026,314.984C838.546,314.984 838.954,315.156 839.25,315.5C839.546,315.844 839.694,316.344 839.694,317L839.694,320.42L841.002,320.42Z" style="fill:rgb(102,102,102);fill-rule:nonzero;"/><path d="M847.098,320.012C846.762,320.308 846.414,320.538 846.054,320.702C845.694,320.866 845.282,320.948 844.818,320.948C844.322,320.948 843.852,320.84 843.408,320.624C842.964,320.408 842.604,320.088 842.328,319.664C842.052,319.24 841.914,318.736 841.914,318.152C841.914,317.488 842.06,316.918 842.352,316.442C842.644,315.966 843.016,315.606 843.468,315.362C843.92,315.118 844.39,314.996 844.878,314.996C845.286,314.996 845.66,315.07 846,315.218C846.34,315.366 846.606,315.572 846.798,315.836C846.99,316.1 847.086,316.396 847.086,316.724C847.086,317.06 846.98,317.346 846.768,317.582C846.556,317.818 846.278,317.998 845.934,318.122C845.59,318.246 845.226,318.308 844.842,318.308C844.426,318.308 844.02,318.262 843.624,318.17C843.228,318.078 842.798,317.952 842.334,317.792C842.318,317.936 842.31,318.056 842.31,318.152C842.31,318.624 842.424,319.046 842.652,319.418C842.88,319.79 843.18,320.076 843.552,320.276C843.924,320.476 844.322,320.576 844.746,320.576C845.202,320.576 845.596,320.504 845.928,320.36C846.26,320.216 846.578,320.008 846.882,319.736L847.098,320.012ZM844.878,315.368C844.518,315.368 844.164,315.45 843.816,315.614C843.468,315.778 843.164,316.018 842.904,316.334C842.644,316.65 842.47,317.028 842.382,317.468C843.278,317.78 844.098,317.936 844.842,317.936C845.33,317.936 845.76,317.83 846.132,317.618C846.504,317.406 846.69,317.108 846.69,316.724C846.69,316.316 846.522,315.988 846.186,315.74C845.85,315.492 845.414,315.368 844.878,315.368Z" style="fill:rgb(102,102,102);fill-rule:nonzero;"/></g></g></g></g></g></svg>